<svg width="10" height="10" viewBox="0 0 10 10" fill="none" xmlns="http://www.w3.org/2000/svg">
<path fill-rule="evenodd" clip-rule="evenodd" d="M3 0C1.34314 0 0 1.34314 0 3V7C0 8.65686 1.34314 10 3 10H7C8.65686 10 10 8.65686 10 7V3C10 1.34314 8.65686 0 7 0H3ZM3 1C1.89545 1 1 1.89545 1 3V7C1 8.10455 1.89545 9 3 9H7C8.10455 9 9 8.10455 9 7V3C9 1.89545 8.10455 1 7 1H3Z" fill="#A40000"/>
<path d="M7 5C7 6.10457 6.10457 7 5 7C3.89543 7 3 6.10457 3 5C3 3.89543 3.89543 3 5 3C6.10457 3 7 3.89543 7 5Z" fill="#A40000"/>
</svg>
